HIERARCHY
ROOT Root
{
  OFFSET 0.0 0.0 0.0
  CHANNELS 6 Xposition Yposition Zposition Zrotation Yrotation Xrotation
  JOINT Hips
  {
    OFFSET 0.0 100.0 0.0
    CHANNELS 6 Xposition Yposition Zposition Zrotation Yrotation Xrotation
    JOINT Spine1
    {
      OFFSET 5.003913 -0.037094 -0.013727
      CHANNELS 3 Zrotation Yrotation Xrotation
      JOINT Spine2
      {
        OFFSET 7.125363 -1e-06 0.0
        CHANNELS 3 Zrotation Yrotation Xrotation
        JOINT Chest
        {
          OFFSET 7.594027 1e-06 0.0
          CHANNELS 3 Zrotation Yrotation Xrotation
          JOINT Neck1
          {
            OFFSET 26.313086 -0.460272 -0.181672
            CHANNELS 3 Zrotation Yrotation Xrotation
            JOINT Neck2
            {
              OFFSET 8.045911 0.0 0.0
              CHANNELS 3 Zrotation Yrotation Xrotation
              JOINT Head
              {
                OFFSET 6.432774 0.0 0.0
                CHANNELS 3 Zrotation Yrotation Xrotation
                JOINT HeadEnd
                {
                  OFFSET 16.169773 0.06451 0.00362
                  CHANNELS 3 Zrotation Yrotation Xrotation
                }
                JOINT Jaw
                {
                  OFFSET 0.108741 3.12938 0.002639
                  CHANNELS 3 Zrotation Yrotation Xrotation
                }
                JOINT LeftEye
                {
                  OFFSET 4.45173 8.166359 3.206392
                  CHANNELS 3 Zrotation Yrotation Xrotation
                }
                JOINT RightEye
                {
                  OFFSET 4.436895 8.135758 -3.222429
                  CHANNELS 3 Zrotation Yrotation Xrotation
                }
              }
            }
          }
          JOINT LeftShoulder
          {
            OFFSET 23.218927 5.195579 1.621656
            CHANNELS 3 Zrotation Yrotation Xrotation
            JOINT LeftArm
            {
              OFFSET 15.902118 2e-06 -2e-06
              CHANNELS 3 Zrotation Yrotation Xrotation
              JOINT LeftForeArm
              {
                OFFSET 28.739307 0.0 -1e-06
                CHANNELS 3 Zrotation Yrotation Xrotation
                JOINT LeftHand
                {
                  OFFSET 27.093981 -4e-06 0.0
                  CHANNELS 3 Zrotation Yrotation Xrotation
                  JOINT LeftHandThumb1
                  {
                    OFFSET 2.276781 3.380274 0.83384
                    CHANNELS 3 Zrotation Yrotation Xrotation
                    JOINT LeftHandThumb2
                    {
                      OFFSET 4.705309 -1e-06 -1e-06
                      CHANNELS 3 Zrotation Yrotation Xrotation
                      JOINT LeftHandThumb3
                      {
                        OFFSET 2.798515 0.0 3e-06
                        CHANNELS 3 Zrotation Yrotation Xrotation
                        JOINT LeftHandThumbEnd
                        {
                          OFFSET 3.180793 4e-06 -4e-06
                          CHANNELS 3 Zrotation Yrotation Xrotation
                        }
                      }
                    }
                  }
                  JOINT LeftHandIndex1
                  {
                    OFFSET 3.247786 2.352677 0.137192
                    CHANNELS 3 Zrotation Yrotation Xrotation
                    JOINT LeftHandIndex2
                    {
                      OFFSET 6.367095 1e-06 0.0
                      CHANNELS 3 Zrotation Yrotation Xrotation
                      JOINT LeftHandIndex3
                      {
                        OFFSET 3.662364 0.0 0.0
                        CHANNELS 3 Zrotation Yrotation Xrotation
                        JOINT LeftHandIndex4
                        {
                          OFFSET 2.329242 4e-06 -4e-06
                          CHANNELS 3 Zrotation Yrotation Xrotation
                          JOINT LeftHandIndexEnd
                          {
                            OFFSET 2.767823 1e-06 0.0
                            CHANNELS 3 Zrotation Yrotation Xrotation
                          }
                        }
                      }
                    }
                  }
                  JOINT LeftHandMiddle1
                  {
                    OFFSET 3.163612 0.945023 -0.406112
                    CHANNELS 3 Zrotation Yrotation Xrotation
                    JOINT LeftHandMiddle2
                    {
                      OFFSET 6.276789 3e-06 0.0
                      CHANNELS 3 Zrotation Yrotation Xrotation
                      JOINT LeftHandMiddle3
                      {
                        OFFSET 4.35652 -1e-06 4e-06
                        CHANNELS 3 Zrotation Yrotation Xrotation
                        JOINT LeftHandMiddle4
                        {
                          OFFSET 2.996877 0.0 8e-06
                          CHANNELS 3 Zrotation Yrotation Xrotation
                          JOINT LeftHandMiddleEnd
                          {
                            OFFSET 2.323256 3e-06 -4e-06
                            CHANNELS 3 Zrotation Yrotation Xrotation
                          }
                        }
                      }
                    }
                  }
                  JOINT LeftHandRing1
                  {
                    OFFSET 2.882606 -0.309162 0.107445
                    CHANNELS 3 Zrotation Yrotation Xrotation
                    JOINT LeftHandRing2
                    {
                      OFFSET 6.033198 0.0 4e-06
                      CHANNELS 3 Zrotation Yrotation Xrotation
                      JOINT LeftHandRing3
                      {
                        OFFSET 4.350578 3e-06 0.0
                        CHANNELS 3 Zrotation Yrotation Xrotation
                        JOINT LeftHandRing4
                        {
                          OFFSET 2.651321 2e-06 -7e-06
                          CHANNELS 3 Zrotation Yrotation Xrotation
                          JOINT LeftHandRingEnd
                          {
                            OFFSET 1.937663 1e-06 -4e-06
                            CHANNELS 3 Zrotation Yrotation Xrotation
                          }
                        }
                      }
                    }
                  }
                  JOINT LeftHandPinky1
                  {
                    OFFSET 2.865315 -1.525436 0.575687
                    CHANNELS 3 Zrotation Yrotation Xrotation
                    JOINT LeftHandPinky2
                    {
                      OFFSET 5.54936 1e-06 -8e-06
                      CHANNELS 3 Zrotation Yrotation Xrotation
                      JOINT LeftHandPinky3
                      {
                        OFFSET 3.070974 0.0 -4e-06
                        CHANNELS 3 Zrotation Yrotation Xrotation
                        JOINT LeftHandPinky4
                        {
                          OFFSET 1.549672 1e-06 0.0
                          CHANNELS 3 Zrotation Yrotation Xrotation
                          JOINT LeftHandPinkyEnd
                          {
                            OFFSET 1.952123 0.0 0.0
                            CHANNELS 3 Zrotation Yrotation Xrotation
                          }
                        }
                      }
                    }
                  }
                }
              }
            }
          }
          JOINT RightShoulder
          {
            OFFSET 23.161716 5.296122 -1.380114
            CHANNELS 3 Zrotation Yrotation Xrotation
            JOINT RightArm
            {
              OFFSET -16.027195 -2e-06 1.1e-05
              CHANNELS 3 Zrotation Yrotation Xrotation
              JOINT RightForeArm
              {
                OFFSET -28.736639 4e-06 2e-06
                CHANNELS 3 Zrotation Yrotation Xrotation
                JOINT RightHand
                {
                  OFFSET -27.133619 6e-06 0.0
                  CHANNELS 3 Zrotation Yrotation Xrotation
                  JOINT RightHandThumb1
                  {
                    OFFSET -2.274328 -3.351035 -0.83067
                    CHANNELS 3 Zrotation Yrotation Xrotation
                    JOINT RightHandThumb2
                    {
                      OFFSET -4.703594 -3e-06 2e-06
                      CHANNELS 3 Zrotation Yrotation Xrotation
                      JOINT RightHandThumb3
                      {
                        OFFSET -2.794935 -4e-06 -3e-06
                        CHANNELS 3 Zrotation Yrotation Xrotation
                        JOINT RightHandThumbEnd
                        {
                          OFFSET -3.183852 4e-06 1e-06
                          CHANNELS 3 Zrotation Yrotation Xrotation
                        }
                      }
                    }
                  }
                  JOINT RightHandIndex1
                  {
                    OFFSET -3.253496 -2.33755 -0.127667
                    CHANNELS 3 Zrotation Yrotation Xrotation
                    JOINT RightHandIndex2
                    {
                      OFFSET -6.344434 0.0 0.0
                      CHANNELS 3 Zrotation Yrotation Xrotation
                      JOINT RightHandIndex3
                      {
                        OFFSET -3.654871 0.0 -8e-06
                        CHANNELS 3 Zrotation Yrotation Xrotation
                        JOINT RightHandIndex4
                        {
                          OFFSET -2.327586 -1e-06 0.0
                          CHANNELS 3 Zrotation Yrotation Xrotation
                          JOINT RightHandIndexEnd
                          {
                            OFFSET -2.770001 3e-06 8e-06
                            CHANNELS 3 Zrotation Yrotation Xrotation
                          }
                        }
                      }
                    }
                  }
                  JOINT RightHandMiddle1
                  {
                    OFFSET -3.168223 -0.944764 0.411762
                    CHANNELS 3 Zrotation Yrotation Xrotation
                    JOINT RightHandMiddle2
                    {
                      OFFSET -6.266691 -1e-06 -4e-06
                      CHANNELS 3 Zrotation Yrotation Xrotation
                      JOINT RightHandMiddle3
                      {
                        OFFSET -4.348901 0.0 0.0
                        CHANNELS 3 Zrotation Yrotation Xrotation
                        JOINT RightHandMiddle4
                        {
                          OFFSET -3.00024 2e-06 -4e-06
                          CHANNELS 3 Zrotation Yrotation Xrotation
                          JOINT RightHandMiddleEnd
                          {
                            OFFSET -2.321477 -4e-06 -4e-06
                            CHANNELS 3 Zrotation Yrotation Xrotation
                          }
                        }
                      }
                    }
                  }
                  JOINT RightHandRing1
                  {
                    OFFSET -2.885654 0.293261 -0.119232
                    CHANNELS 3 Zrotation Yrotation Xrotation
                    JOINT RightHandRing2
                    {
                      OFFSET -6.032835 -1e-06 -4e-06
                      CHANNELS 3 Zrotation Yrotation Xrotation
                      JOINT RightHandRing3
                      {
                        OFFSET -4.33881 0.0 -4e-06
                        CHANNELS 3 Zrotation Yrotation Xrotation
                        JOINT RightHandRing4
                        {
                          OFFSET -2.654903 -4e-06 -4e-06
                          CHANNELS 3 Zrotation Yrotation Xrotation
                          JOINT RightHandRingEnd
                          {
                            OFFSET -1.935122 0.0 4e-06
                            CHANNELS 3 Zrotation Yrotation Xrotation
                          }
                        }
                      }
                    }
                  }
                  JOINT RightHandPinky1
                  {
                    OFFSET -2.866241 1.503904 -0.60527
                    CHANNELS 3 Zrotation Yrotation Xrotation
                    JOINT RightHandPinky2
                    {
                      OFFSET -5.553177 -2e-06 0.0
                      CHANNELS 3 Zrotation Yrotation Xrotation
                      JOINT RightHandPinky3
                      {
                        OFFSET -3.062664 -1e-06 -4e-06
                        CHANNELS 3 Zrotation Yrotation Xrotation
                        JOINT RightHandPinky4
                        {
                          OFFSET -1.546529 2e-06 4e-06
                          CHANNELS 3 Zrotation Yrotation Xrotation
                          JOINT RightHandPinkyEnd
                          {
                            OFFSET -1.952341 0.0 -4e-06
                            CHANNELS 3 Zrotation Yrotation Xrotation
                          }
                        }
                      }
                    }
                  }
                }
              }
            }
          }
        }
      }
    }
    JOINT LeftLeg
    {
      OFFSET -8.443107 2.567604 10.043214
      CHANNELS 3 Zrotation Yrotation Xrotation
      JOINT LeftShin
      {
        OFFSET 43.229198 1e-06 -1e-06
        CHANNELS 3 Zrotation Yrotation Xrotation
        JOINT LeftFoot
        {
          OFFSET 42.298611 1e-06 1e-06
          CHANNELS 3 Zrotation Yrotation Xrotation
          JOINT LeftToeBase
          {
            OFFSET 14.165858 1e-06 0.0
            CHANNELS 3 Zrotation Yrotation Xrotation
            JOINT LeftToeEnd
            {
              OFFSET 6.7141 -0.234461 0.0
              CHANNELS 3 Zrotation Yrotation Xrotation
            }
          }
        }
      }
    }
    JOINT RightLeg
    {
      OFFSET -8.303923 2.592729 -10.047278
      CHANNELS 3 Zrotation Yrotation Xrotation
      JOINT RightShin
      {
        OFFSET -43.369682 0.0 1e-06
        CHANNELS 3 Zrotation Yrotation Xrotation
        JOINT RightFoot
        {
          OFFSET -42.260784 4e-06 2e-06
          CHANNELS 3 Zrotation Yrotation Xrotation
          JOINT RightToeBase
          {
            OFFSET -14.222245 -2e-06 -1e-06
            CHANNELS 3 Zrotation Yrotation Xrotation
            JOINT RightToeEnd
            {
              OFFSET -6.660062 0.232574 -2e-06
              CHANNELS 3 Zrotation Yrotation Xrotation
            }
          }
        }
      }
    }
  }
}
MOTION
Frames: 4
Frame Time: 0.03333333333333333
0.0 0.0 0.0 0.0 -0.0 0.0 -31.384823 74.379379 -0.2619 74.592644 3.800518 100.970764 7.729193 -1.334767 0.244956 -6.782372 -0.984174 -2.074793 20.754261 12.282291 0.336177 4.89961 24.795065 2.176478 -2.841413 -1.119797 -4.261653 -40.32291 -4.32759 -4.019643 6e-06 -0.0 -1e-06 -0.049168 -0.068961 -0.126184 -0.114285 -0.148127 -0.171232 -0.209159 0.020604 -0.088519 -34.144173 -72.926834 50.149204 31.426544 -63.916302 34.415691 78.807274 0.234707 1.535895 10.216654 15.311339 35.430618 17.636629 -26.322741 52.411205 -19.46666 -14.395598 29.410395 -0.0 -8.774824 -2e-06 17.024792 -18.466566 5.548306 -0.609777 -1.795652 -3.889328 -4.807087 -11.046813 -2.937851 4e-06 -20.976021 0.0 -5.019973 -25.033562 -4.031879 5e-06 1e-06 1e-06 -10.634537 -5.686969 -3.565588 10.573278 -17.922951 -3.113901 4e-06 -13.821211 2e-06 -0.501779 -31.181505 -4.027014 -10.712205 -59.680775 6.606405 -13.982714 -7.150197 -2.875042 13.772732 -8.401493 -3.218242 0.347733 -34.211555 0.771658 -0.963031 -17.733376 2.621022 -3e-06 1e-06 -0.0 -17.346422 -20.095217 -4.20178 21.757561 -1.638377 3.866427 -1e-06 -6.338824 2e-06 -1.697587 -22.591745 -6.194005 -1e-06 -5e-06 -2e-06 26.420736 -60.176216 172.784058 -5.622309 -35.473709 13.386533 108.108345 -4.554165 2.658325 -7.479085 6.286898 43.952126 22.18211 -20.375895 49.933319 -16.701815 -16.74353 28.476534 -3e-06 -12.6906 0.0 16.138767 -18.08433 2.016933 -0.10592 -1.513856 -4.275882 -5.03904 -5.612872 -2.953556 3e-06 -11.020525 -2e-06 -6.111297 -15.895334 -3.84047 1e-06 -1e-06 1e-06 -10.283371 -5.68029 -4.341837 11.028296 -11.302406 -2.372634 -1.384268 -14.238581 -6.32012 -0.62544 -26.924189 -3.827599 -4.917755 -49.093094 -3.598823 -13.708522 -7.36348 -3.720938 18.141146 -14.05274 -3.242675 6e-06 -18.787268 -2e-06 -0.42971 -8.456043 2.555504 0.0 0.0 -0.0 -15.923532 -20.094482 -5.473583 30.41921 -7.190826 1.735922 2e-06 -8.162925 -1e-06 -1.861903 -22.861467 -6.16794 -1e-06 -3e-06 -1e-06 115.921013 -55.67355 16.677559 76.476562 -1.249031 1.358186 -93.69545 27.337608 -28.516861 -4.847615 1.315617 1.967894 -0.999998 1e-06 1e-06 -28.076115 -24.402496 -20.557299 73.722969 -0.670804 1.517194 -102.912308 14.128961 -26.891668 -5.030545 0.766942 1.708687 -1.000002 0.0 0.0 
0.0 0.0 0.0 0.0 -0.0 0.0 -31.190002 76.221657 -0.348102 75.169754 3.871104 100.726021 7.625348 -1.299462 0.245618 -6.90894 -1.071682 -2.138263 20.658133 12.022879 0.118665 5.593874 24.382336 2.224134 -2.824934 -1.200891 -3.992892 -40.312984 -4.079429 -3.62866 6e-06 -1e-06 -0.0 -0.039771 -0.05713 -0.094947 -0.118555 -0.124459 -0.138932 -0.222009 0.021783 -0.059098 -31.465733 -72.769447 47.70451 33.914551 -64.570374 31.837746 75.835709 0.580977 1.694922 10.488331 15.741583 34.000027 17.636627 -26.322741 52.411201 -19.466665 -14.395604 29.410395 -1e-06 -8.774826 -1e-06 16.99217 -18.412062 5.464464 -0.609776 -1.795654 -3.889327 -4.807091 -11.046813 -2.937849 4e-06 -20.976021 1e-06 -5.019978 -25.033562 -4.031878 7e-06 -1e-06 0.0 -10.634535 -5.686973 -3.565588 10.573278 -17.922956 -3.113903 3e-06 -13.821214 1e-06 -0.50178 -31.181522 -4.027016 -10.677921 -59.591202 6.556764 -13.982719 -7.150195 -2.875042 13.772735 -8.401495 -3.218242 0.347733 -34.211559 0.771657 -0.963032 -17.733374 2.621022 -2e-06 -1e-06 1e-06 -17.346424 -20.095222 -4.201782 21.757566 -1.638376 3.866427 1e-06 -6.338825 1e-06 -1.69759 -22.591751 -6.194006 -2e-06 -4e-06 -2e-06 27.263514 -61.659157 171.625565 -3.162639 -34.818359 15.612045 106.260643 -4.148358 2.526842 -4.360775 5.892361 42.988338 22.182119 -20.375895 49.933323 -16.701817 -16.74353 28.476536 -3e-06 -12.690604 0.0 15.997114 -18.261839 2.047897 -0.105919 -1.513856 -4.275883 -5.039042 -5.612874 -2.953555 3e-06 -11.020526 -3e-06 -6.1113 -15.895338 -3.840471 0.0 -0.0 0.0 -10.283373 -5.680287 -4.34184 11.028296 -11.302406 -2.372634 -1.38427 -14.238586 -6.320122 -0.625436 -26.924192 -3.827604 -4.913283 -49.017105 -3.71407 -13.708526 -7.363481 -3.720939 18.141153 -14.052739 -3.242676 4e-06 -18.78727 -2e-06 -0.429712 -8.456044 2.555504 -0.0 -0.0 0.0 -15.923538 -20.09449 -5.473586 30.419218 -7.190824 1.735927 3e-06 -8.162929 -0.0 -1.861905 -22.861471 -6.167942 -1e-06 -3e-06 -1e-06 121.498222 -54.995071 12.222031 73.198204 -1.172737 1.303671 -92.847717 26.051128 -27.701332 -4.911198 1.280052 1.978314 -1.0 -1e-06 0.0 -26.444635 -23.402903 -20.326633 69.904037 -0.608964 1.455251 -100.991425 13.411169 -26.23233 -5.131235 0.777044 1.718968 -1.000002 -0.0 0.0 
0.0 0.0 0.0 0.0 -0.0 0.0 -30.804256 78.368088 -0.362996 76.478966 4.082807 100.398956 7.635614 -1.231039 0.244287 -7.035828 -1.207374 -2.041658 20.401102 11.179155 -0.208595 6.716516 23.444098 2.313867 -2.78037 -1.264129 -3.844077 -40.372936 -3.613071 -3.58812 5e-06 -0.0 0.0 -0.01562 -0.027772 -0.028055 -0.099361 -0.069576 -0.073662 -0.213524 0.027346 0.010076 -28.156305 -72.330063 44.496117 36.959713 -65.442055 28.477648 72.141991 0.873187 1.57222 10.202776 16.12743 32.083836 17.636627 -26.322737 52.411209 -19.46666 -14.395597 29.410395 -1e-06 -8.774822 -2e-06 16.816814 -18.321806 5.486255 -0.609775 -1.795654 -3.889329 -4.807091 -11.046813 -2.937851 3e-06 -20.976015 -1e-06 -5.01997 -25.03356 -4.031882 6e-06 1e-06 1e-06 -10.634535 -5.686972 -3.565589 10.573274 -17.922953 -3.113902 3e-06 -13.82121 -0.0 -0.501778 -31.181511 -4.027018 -10.733046 -59.420647 6.646964 -13.982713 -7.1502 -2.875042 13.772728 -8.401491 -3.218242 0.347734 -34.211552 0.771653 -0.96303 -17.73337 2.621018 -3e-06 -0.0 -0.0 -17.346415 -20.095221 -4.201784 21.757555 -1.638375 3.866428 -2e-06 -6.338824 1e-06 -1.69759 -22.591747 -6.194008 -0.0 -5e-06 -2e-06 29.80695 -64.506454 168.582977 0.790552 -35.38282 19.292505 101.936218 -3.445011 2.269243 -1.428743 5.178586 42.441498 22.182116 -20.375898 49.933319 -16.701807 -16.743525 28.476526 -2e-06 -12.690598 -2e-06 15.9449 -18.289997 2.069211 -0.105921 -1.513856 -4.27588 -5.039039 -5.612867 -2.953556 4e-06 -11.02052 -1e-06 -6.111294 -15.895328 -3.840472 -0.0 0.0 -0.0 -10.283365 -5.680288 -4.341839 11.028289 -11.302402 -2.372629 -1.384268 -14.238575 -6.320119 -0.62544 -26.924179 -3.827598 -4.872547 -49.010159 -3.760485 -13.70852 -7.363473 -3.720942 18.141142 -14.052739 -3.24267 7e-06 -18.787266 -1e-06 -0.42971 -8.456041 2.555504 -1e-06 -0.0 -0.0 -15.923532 -20.094482 -5.473584 30.419197 -7.19082 1.735927 -1e-06 -8.162927 1e-06 -1.861902 -22.861464 -6.167939 -0.0 -3e-06 -1e-06 129.133118 -53.397068 6.318602 69.232651 -1.065219 1.292958 -92.098434 24.336893 -26.608656 -5.017375 1.244181 1.988591 -0.999998 -0.0 0.0 -24.209864 -22.991983 -19.728951 65.22393 -0.554793 1.374175 -98.749992 12.965085 -25.684866 -5.215557 0.739749 1.720619 -1.000002 -0.0 -0.0 
0.0 0.0 0.0 0.0 -0.0 0.0 -30.257336 80.600891 -0.233482 78.745193 4.619243 99.684662 7.815805 -1.151275 0.21593 -7.167447 -1.305882 -1.729472 20.001583 9.474103 -0.567207 8.636173 21.557711 2.335203 -2.726047 -1.253341 -3.676253 -40.465576 -2.785187 -4.006373 7e-06 -1e-06 0.0 0.019813 0.009615 0.075902 -0.048489 0.004329 0.035013 -0.165781 0.029279 0.110183 -25.275635 -71.72538 41.576946 39.787769 -66.276077 25.079443 68.173515 0.862037 1.298014 9.837944 15.847805 29.917978 17.636635 -26.322741 52.411194 -19.466658 -14.395598 29.410385 -1e-06 -8.774821 -2e-06 16.484795 -18.19722 5.610303 -0.609774 -1.795651 -3.889328 -4.80709 -11.046811 -2.93785 5e-06 -20.976019 -0.0 -5.01997 -25.033558 -4.031881 5e-06 2e-06 0.0 -10.634533 -5.686969 -3.565589 10.573275 -17.922949 -3.113899 4e-06 -13.821206 1e-06 -0.501779 -31.181505 -4.027013 -10.768499 -59.21386 6.815084 -13.982712 -7.150196 -2.875041 13.77273 -8.401493 -3.218241 0.347732 -34.211552 0.771658 -0.963031 -17.73337 2.621021 -2e-06 -0.0 -0.0 -17.346416 -20.095217 -4.201782 21.757555 -1.638374 3.866428 -0.0 -6.338823 1e-06 -1.69759 -22.591745 -6.194004 -1e-06 -4e-06 -1e-06 35.894131 -69.216919 161.679581 6.366026 -38.338638 24.710894 94.580933 -2.139911 1.972944 0.278084 4.154421 42.791214 22.182121 -20.375891 49.933315 -16.701811 -16.743526 28.476528 -2e-06 -12.690605 -2e-06 16.141932 -18.232588 2.107355 -0.10592 -1.513855 -4.275882 -5.039043 -5.612871 -2.953555 4e-06 -11.02052 -2e-06 -6.111297 -15.89533 -3.840472 -1e-06 -0.0 0.0 -10.283373 -5.680286 -4.341838 11.028296 -11.302406 -2.372633 -1.384272 -14.238579 -6.320121 -0.625441 -26.924187 -3.8276 -4.80601 -49.308659 -3.676165 -13.70853 -7.363475 -3.720941 18.141153 -14.052739 -3.242674 4e-06 -18.787268 -1e-06 -0.429712 -8.456041 2.555504 -1e-06 -0.0 -0.0 -15.923539 -20.094482 -5.473584 30.419218 -7.190824 1.73593 2e-06 -8.162925 1e-06 -1.861903 -22.861467 -6.167941 -0.0 -3e-06 -1e-06 138.653091 -50.762241 -0.732335 64.746147 -0.909923 1.328283 -91.411095 22.214479 -25.365225 -5.100454 1.220045 2.001903 -1.0 1e-06 0.0 -21.433842 -23.498545 -18.538719 60.112823 -0.528267 1.278985 -96.402565 12.928803 -25.301044 -5.252694 0.670552 1.711601 -1.000001 -0.0 0.0 
